<?xml version="1.0" encoding="utf-8"?>
<!-- Svg Vector Icons : http://www.onlinewebfonts.com/icon -->
<!DOCTYPE svg PUBLIC "-//W3C//DTD SVG 1.1//EN" "http://www.w3.org/Graphics/SVG/1.1/DTD/svg11.dtd">
<svg version="1.1" xmlns="http://www.w3.org/2000/svg" xmlns:xlink="http://www.w3.org/1999/xlink" x="0px" y="0px" viewBox="0 0 256 256" enable-background="new 0 0 256 256" xml:space="preserve">
<metadata> Svg Vector Icons : http://www.onlinewebfonts.com/icon </metadata>
<g><g><path fill="#000000" d="M246,58.2c0,9.3-7.5,16.9-16.9,16.9H26.9c-9.3,0-16.9-7.5-16.9-16.9l0,0c0-9.3,7.5-16.9,16.9-16.9h202.3C238.4,41.4,246,48.9,246,58.2L246,58.2L246,58.2z"/><path fill="#000000" d="M179.4,128c0,9.3-7.5,16.9-16.9,16.9H26.9c-9.3,0-16.9-7.5-16.9-16.9l0,0c0-9.3,7.5-16.9,16.9-16.9h135.7C171.8,111.1,179.4,118.7,179.4,128L179.4,128L179.4,128z"/><path fill="#000000" d="M128.8,197.8c0,9.3-7.5,16.9-16.9,16.9H26.9c-9.3,0-16.9-7.5-16.9-16.9l0,0c0-9.3,7.5-16.9,16.9-16.9H112C121.3,180.9,128.8,188.5,128.8,197.8L128.8,197.8L128.8,197.8z"/></g></g>
</svg>